<svg aria-hidden="true" style="position: absolute; width: 0; height: 0; overflow: hidden;" version="1.1" xmlns="http://www.w3.org/2000/svg" xmlns:xlink="http://www.w3.org/1999/xlink">
<defs>
<symbol id="icon-Small-icon-Location" viewBox="0 0 23 32">
<path fill="#d2d7e9" style="fill: var(--color1, #d2d7e9)" d="M11.556 32c0 0-11.556-10.719-11.556-19.556s5.174-12.444 11.556-12.444c6.382 0 11.556 3.608 11.556 12.444s-11.556 19.556-11.556 19.556zM11.556 17.778c3.436 0 6.222-2.786 6.222-6.222s-2.786-6.222-6.222-6.222c-3.436 0-6.222 2.786-6.222 6.222s2.786 6.222 6.222 6.222z"></path>
</symbol>
<symbol id="icon-Star" viewBox="0 0 32 32">
<path fill="#384564" style="fill: var(--color2, #384564)" d="M11.282 8.16c1.231-2.948 3.573-8.159 4.745-8.159 1.703-0.002 5.433 10.108 5.433 10.108s3.453 0.318 6.244 0.644c1.482 0.172 4.127 0.436 4.293 1.298 0.035 0.187-0.177 0.949-0.564 1.481-1.639 2.258-5.891 7.095-5.891 7.095s0.233 2.311 0.441 4.839c0.133 1.636 0.493 4.949 0.363 5.541-0.142 0.652-0.397 0.83-0.662 0.933-0.693 0.267-2.301-0.77-4.179-1.719-2.559-1.296-5.435-2.681-5.435-2.681s-1.897 1.047-4.146 2.069c-2.402 1.092-4.835 2.891-5.85 2.258-0.633-0.396-0.164-3.486 0.079-6.236 0.228-2.594 0.426-4.964 0.426-4.964s-1.409-1.746-3.049-3.612c-1.772-2.018-3.933-4.196-3.465-4.996 0.353-0.604 1.965-0.928 4.671-1.282 2.875-0.377 5.747-0.644 5.747-0.644s0.313-0.811 0.799-1.975z"></path>
</symbol>
<symbol id="icon-dots" viewBox="0 0 96 32">
<path fill="#38415d" style="fill: var(--color2, #38415d)" opacity="0.602109" d="M26.624 15.040c0-5.632-4.736-10.368-10.368-10.368s-10.24 4.736-10.24 10.368c0 5.504 4.608 10.24 10.24 10.24s10.368-4.736 10.368-10.24zM59.392 15.040c0-5.632-4.736-10.368-10.368-10.368s-10.24 4.736-10.24 10.368c0 5.504 4.608 10.24 10.24 10.24s10.368-4.736 10.368-10.24zM92.16 15.040c0-5.632-4.736-10.368-10.368-10.368s-10.24 4.736-10.24 10.368c0 5.504 4.608 10.24 10.24 10.24s10.368-4.736 10.368-10.24z"></path>
</symbol>
<symbol id="icon-Selected-number-underline" viewBox="0 0 384 32">
<path fill="none" stroke="#55699e" style="stroke: var(--color1, #55699e)" stroke-linejoin="miter" stroke-linecap="butt" stroke-miterlimit="4" stroke-width="32" d="M0 16h384"></path>
</symbol>
</defs>
</svg>
